<svg xmlns="http://www.w3.org/2000/svg" width="1185" height="408" viewBox="0 0 1185 408" role="img" aria-labelledby="title desc">
  <title id="title">ADNI and ABCD common-six performance</title>
  <desc id="desc">Aggregate percentage metrics by dataset and method; darker cells indicate larger values on a fixed zero-to-one scale.</desc>
  <rect width="1185" height="408" fill="#ffffff"/>
  <text x="28" y="42" font-family="sans-serif" font-size="27" font-weight="700" fill="#20242a">ADNI and ABCD common-six performance</text>
  <text x="28" y="72" font-family="sans-serif" font-size="15" fill="#555b63">Values are percentages; color uses a fixed 0–100% scale.</text>
  <text x="380.0" y="104" text-anchor="middle" font-family="sans-serif" font-size="14" font-weight="600" fill="#30353b">Accuracy</text>
  <text x="520.0" y="104" text-anchor="middle" font-family="sans-serif" font-size="14" font-weight="600" fill="#30353b">BalAcc</text>
  <text x="660.0" y="104" text-anchor="middle" font-family="sans-serif" font-size="14" font-weight="600" fill="#30353b">Macro-F1</text>
  <text x="800.0" y="104" text-anchor="middle" font-family="sans-serif" font-size="14" font-weight="600" fill="#30353b">Weighted-F1</text>
  <text x="940.0" y="104" text-anchor="middle" font-family="sans-serif" font-size="14" font-weight="600" fill="#30353b">Macro-AUROC</text>
  <text x="1080.0" y="104" text-anchor="middle" font-family="sans-serif" font-size="14" font-weight="600" fill="#30353b">Macro-AUPRC</text>
  <rect x="20" y="120" width="1145" height="52" fill="#f7f8fa"/>
  <text x="30" y="152" font-family="sans-serif" font-size="15" font-weight="700" fill="#30353b">ADNI</text>
  <text x="105" y="152" font-family="sans-serif" font-size="14" fill="#30353b">CERD</text>
  <rect x="318" y="127" width="124" height="38" rx="5" fill="#6e98c9"/>
  <text x="380.0" y="153" text-anchor="middle" font-family="sans-serif" font-size="15" font-weight="600" fill="#ffffff">61.82</text>
  <rect x="458" y="127" width="124" height="38" rx="5" fill="#6e98c9"/>
  <text x="520.0" y="153" text-anchor="middle" font-family="sans-serif" font-size="15" font-weight="600" fill="#ffffff">61.93</text>
  <rect x="598" y="127" width="124" height="38" rx="5" fill="#709aca"/>
  <text x="660.0" y="153" text-anchor="middle" font-family="sans-serif" font-size="15" font-weight="600" fill="#ffffff">60.69</text>
  <rect x="738" y="127" width="124" height="38" rx="5" fill="#719acb"/>
  <text x="800.0" y="153" text-anchor="middle" font-family="sans-serif" font-size="15" font-weight="600" fill="#ffffff">60.25</text>
  <rect x="878" y="127" width="124" height="38" rx="5" fill="#4c7fbb"/>
  <text x="940.0" y="153" text-anchor="middle" font-family="sans-serif" font-size="15" font-weight="600" fill="#ffffff">78.18</text>
  <rect x="1018" y="127" width="124" height="38" rx="5" fill="#6a96c8"/>
  <text x="1080.0" y="153" text-anchor="middle" font-family="sans-serif" font-size="15" font-weight="600" fill="#ffffff">63.45</text>
  <rect x="20" y="172" width="1145" height="52" fill="#ffffff"/>
  <text x="30" y="204" font-family="sans-serif" font-size="15" font-weight="700" fill="#30353b"></text>
  <text x="105" y="204" font-family="sans-serif" font-size="14" fill="#30353b">Comparator</text>
  <rect x="318" y="179" width="124" height="38" rx="5" fill="#6f99ca"/>
  <text x="380.0" y="205" text-anchor="middle" font-family="sans-serif" font-size="15" font-weight="600" fill="#ffffff">61.01</text>
  <rect x="458" y="179" width="124" height="38" rx="5" fill="#6e98c9"/>
  <text x="520.0" y="205" text-anchor="middle" font-family="sans-serif" font-size="15" font-weight="600" fill="#ffffff">61.60</text>
  <rect x="598" y="179" width="124" height="38" rx="5" fill="#719acb"/>
  <text x="660.0" y="205" text-anchor="middle" font-family="sans-serif" font-size="15" font-weight="600" fill="#ffffff">60.30</text>
  <rect x="738" y="179" width="124" height="38" rx="5" fill="#729bcb"/>
  <text x="800.0" y="205" text-anchor="middle" font-family="sans-serif" font-size="15" font-weight="600" fill="#ffffff">59.82</text>
  <rect x="878" y="179" width="124" height="38" rx="5" fill="#4c80bb"/>
  <text x="940.0" y="205" text-anchor="middle" font-family="sans-serif" font-size="15" font-weight="600" fill="#ffffff">77.91</text>
  <rect x="1018" y="179" width="124" height="38" rx="5" fill="#6b96c8"/>
  <text x="1080.0" y="205" text-anchor="middle" font-family="sans-serif" font-size="15" font-weight="600" fill="#ffffff">63.28</text>
  <rect x="20" y="224" width="1145" height="52" fill="#f7f8fa"/>
  <text x="30" y="256" font-family="sans-serif" font-size="15" font-weight="700" fill="#30353b">ABCD</text>
  <text x="105" y="256" font-family="sans-serif" font-size="14" fill="#30353b">CERD</text>
  <rect x="318" y="231" width="124" height="38" rx="5" fill="#7fa4d0"/>
  <text x="380.0" y="257" text-anchor="middle" font-family="sans-serif" font-size="15" font-weight="600" fill="#20242a">53.81</text>
  <rect x="458" y="231" width="124" height="38" rx="5" fill="#94b4d9"/>
  <text x="520.0" y="257" text-anchor="middle" font-family="sans-serif" font-size="15" font-weight="600" fill="#20242a">43.58</text>
  <rect x="598" y="231" width="124" height="38" rx="5" fill="#95b4d9"/>
  <text x="660.0" y="257" text-anchor="middle" font-family="sans-serif" font-size="15" font-weight="600" fill="#20242a">43.20</text>
  <rect x="738" y="231" width="124" height="38" rx="5" fill="#7ea4d0"/>
  <text x="800.0" y="257" text-anchor="middle" font-family="sans-serif" font-size="15" font-weight="600" fill="#20242a">54.27</text>
  <rect x="878" y="231" width="124" height="38" rx="5" fill="#6d97c9"/>
  <text x="940.0" y="257" text-anchor="middle" font-family="sans-serif" font-size="15" font-weight="600" fill="#ffffff">62.29</text>
  <rect x="1018" y="231" width="124" height="38" rx="5" fill="#96b5da"/>
  <text x="1080.0" y="257" text-anchor="middle" font-family="sans-serif" font-size="15" font-weight="600" fill="#20242a">42.63</text>
  <rect x="20" y="276" width="1145" height="52" fill="#ffffff"/>
  <text x="30" y="308" font-family="sans-serif" font-size="15" font-weight="700" fill="#30353b"></text>
  <text x="105" y="308" font-family="sans-serif" font-size="14" fill="#30353b">Comparator</text>
  <rect x="318" y="283" width="124" height="38" rx="5" fill="#7da3d0"/>
  <text x="380.0" y="309" text-anchor="middle" font-family="sans-serif" font-size="15" font-weight="600" fill="#20242a">54.33</text>
  <rect x="458" y="283" width="124" height="38" rx="5" fill="#94b4d9"/>
  <text x="520.0" y="309" text-anchor="middle" font-family="sans-serif" font-size="15" font-weight="600" fill="#20242a">43.40</text>
  <rect x="598" y="283" width="124" height="38" rx="5" fill="#95b4d9"/>
  <text x="660.0" y="309" text-anchor="middle" font-family="sans-serif" font-size="15" font-weight="600" fill="#20242a">43.14</text>
  <rect x="738" y="283" width="124" height="38" rx="5" fill="#7da3d0"/>
  <text x="800.0" y="309" text-anchor="middle" font-family="sans-serif" font-size="15" font-weight="600" fill="#20242a">54.56</text>
  <rect x="878" y="283" width="124" height="38" rx="5" fill="#6d97c9"/>
  <text x="940.0" y="309" text-anchor="middle" font-family="sans-serif" font-size="15" font-weight="600" fill="#ffffff">62.34</text>
  <rect x="1018" y="283" width="124" height="38" rx="5" fill="#95b5da"/>
  <text x="1080.0" y="309" text-anchor="middle" font-family="sans-serif" font-size="15" font-weight="600" fill="#20242a">43.05</text>
</svg>
